<?xml version="1.0" encoding="UTF-8"?>
<svg clip-rule="evenodd" fill-rule="evenodd" stroke-linejoin="round" stroke-miterlimit="2" version="1.1" viewBox="0 0 1024 1024" xml:space="preserve" xmlns="http://www.w3.org/2000/svg">
    
<g clip-rule="evenodd" fill-rule="evenodd" stroke-linejoin="round" stroke-miterlimit="2" stroke-width="2.367"><path d="m934.21 284.96c-1.5977 0.96335-3.1954 1.9291-4.7931 2.8948l-2.367-1.129-2.367-1.3137-2.367-1.4959c-192.73-87.604-343.34 103.82-495.07 189.81-13.84 7.8442-13.234 8.5164-27.904 15.187-6.913 1.3798-12.717 4.8928-19.068 7.7092-4.3174 1.877-7.3824 5.1906-7.9528 6.4522 9.7094-3.115 44.229-12.834 78.965-28.681 10.057-4.5872 91.463-41.372 99.416-44.966 92.239-41.68 146.53-23.185 158.63-19.064 84.724 28.863 105.83 178.52-16.974 300.35-55.456 55.013-151.54 88.303-203.3 96.67-28.068 4.5351-59.915 3.7398-63.712 3.9197-46.246 2.1942 170.33 37.356 319.85-37.801 1.5101-0.75979 16.938-8.514 18.986-9.2928 47.479-18.06 134.82-94.923 161.95-134.38 29.665-43.145 47.046-68.138 63.39-117.26 52.59-158.05-51.82-224.48-55.316-227.6z" fill="#96522c"/><path d="m19.695 407.19s-0.049 30.612 9.4729 62.028c9.5219 31.416 33.905 82.893 56.807 121.6 49.153 83.074 133.09 137.86 166.91 154.92 133.46 67.319 259.55 20.69 298.13-0.88997 64.377-36.009 93.732-75.119 110.77-130.87 4.5588-14.917 3.2901-47.647 0.0473-56.713-23.613-66.036-80.508-75.67-199.01-36.454-60.398 19.984-84.828 26.33-92.303 28.271-47.865 12.431-84.598 12.517-92.028 12.533-44.61 0.10184-44.452-1.2474-70.948-4.7269-18.304-2.4048-69.464-16.147-108-44.073-38.539-27.926-64.457-70.036-66.307-78.132-3.1958-6.1272-13.541-27.496-13.541-27.496z" fill="#96522c"/><path d="m406.32 254.17c1.3066 0.1516 40.175 4.334 42.587 4.9281 29.893 2.5185 61.507 10.648 49.815 2.0616-11.692-8.5869-29.301-14.195-82.894-33.109-106.13-37.46-205.08-23.225-212.99-20.853-1.3634 0.40713-44.906 8.2063-73.014 21.921-49.527 24.16-60.23 40.603-69.239 51.042-42.883 49.683-44.996 152.79 90.457 214.67 101.23 46.244 211.69 11.771 221.28 8.2416 1.8398-1.2616 5.5648-3.4582 9.8314-5.8429 6.0743-2.8897 10.855-5.6871 17.19-8.3185 14.671-6.6702 14.065-7.3424 27.904-15.187 151.72-85.99 302.34-277.41 495.07-189.81l2.367 1.4959 2.367 1.3137 2.367 1.129c1.5977-0.96573 3.1954-1.9315 4.7931-2.8948-32.608-21.447-37.37-25.679-80.198-36.615-102.81-26.247-217.24 27.256-222.92 29.303-31.427 13.29-18.595 8.0005-65.589 29.717-23.632 12.175-167.19 89.491-270.09 52.488-5.5861-2.0096-32.709-19.021-35.45-39.377-4.6464-34.496 29.372-50.852 30.579-51.584 39.076-23.653 106.5-15.804 115.78-14.723z" fill="#3f5a3c"/></g></svg>
