<?xml version="1.0" encoding="UTF-8"?>
<svg clip-rule="evenodd" fill-rule="evenodd" stroke-linejoin="round" stroke-miterlimit="2" version="1.1" viewBox="0 0 1024 320" xml:space="preserve" xmlns="http://www.w3.org/2000/svg">
    
<g fill="#fafafa"><g clip-rule="evenodd" fill-rule="evenodd"><path d="m557.56 88.03c-15.198 0.29906-29.607 5.3867-43.509 12.818a3.9343 3.9343 0 0 1 1.138 2.764v29.481c4.0792 0.56963 6.8141 1.4685 8.0667 1.8952 5.749 1.9585 10.535 5.714 14.17 10.737h22.946v-42.112a3.9343 3.9343 0 0 1 3.9348-3.9348h27.027a3.9343 3.9343 0 0 1 3.9348 3.9348v95.303c7.1441-10.511 11.964-18.387 16.387-31.682 16.592-49.864-16.348-70.825-17.451-71.81-0.50405 0.30422-1.0081 0.60793-1.5122 0.91259l-0.74842-0.35691-0.74627-0.41384-0.74627-0.47272c-11.401-5.1824-22.336-7.27-32.892-7.0621zm-77.268 34.915c-7.6488 5.6172-15.205 11.346-22.718 16.753 0.24312 2.045 0.38053 4.1398 0.38053 6.2918 0 0.65482-0.0366 1.2947-0.0593 1.9389 6.956-3.1448 14.088-6.373 15.313-6.9264 2.4612-1.1122 4.8-2.0382 7.084-2.8866zm64.634 53.505c-1.261 16.663-9.4622 35.875-27.025 53.298-17.497 17.357-47.814 27.861-64.143 30.5-8.8554 1.4308-18.903 1.1797-20.101 1.2365-14.591 0.69228 53.74 11.787 100.92-11.925 0.47644-0.23982 5.3438-2.6868 5.9898-2.9325 8.5692-3.2595 21.198-12.579 32.076-22.296h-8.3314a3.9343 3.9343 0 0 1-3.9348-3.9348v-43.946z" stroke-linejoin="round" stroke-miterlimit="2" stroke-width=".74679"/><path d="m305.67 133.99s-0.0139 9.6574 2.9894 19.569c3.0042 9.9117 10.695 26.153 17.921 38.366 6.3049 10.656 14.423 19.808 22.556 27.314v-42.406c-5.9854-2.2574-12.56-5.3758-18.276-9.5176-12.159-8.8108-20.336-22.096-20.919-24.651-1.0082-1.9331-4.2718-8.675-4.2718-8.675zm174.62 28.557c-7.505 0.0803-16.622 1.7996-27.579 5.0378-3.7934 6.9808-9.5185 12.663-16.836 16.665l23.574 34a3.7731 3.7731 0 0 1-3.101 5.922h-29.03a3.7731 3.7731 0 0 1-3.101-1.626l-21.399-30.905h-19.11v28.758a3.7731 3.7731 0 0 1-3.7729 3.7729h-25.213c9.8942 8.2717 19.183 13.941 24.519 16.632 42.108 21.239 81.889 6.5283 94.062-0.27995 9.0628-5.0692 15.885-10.35 21.18-16.19h-10.259a3.9343 3.9343 0 0 1-3.9348-3.9348z" stroke-linejoin="round" stroke-miterlimit="2" stroke-width=".74679"/><path d="m385.44 69.466c-12.302-0.2608-20.731 1.0483-21.979 1.4224-0.43017 0.12831-14.17 2.5886-23.038 6.9155-15.626 7.6225-19.003 12.811-21.845 16.105-13.53 15.675-14.196 48.205 28.54 67.728 0.67269 0.30748 1.3515 0.54 2.0265 0.82506v-58.85a3.7731 3.7731 0 0 1 3.7729-3.7729h29.301c2.3311-6.2577 8.6233-9.3088 8.9136-9.4847 12.329-7.4627 33.604-4.9874 36.53-4.6461 0.41215 0.04805 12.674 1.3686 13.435 1.556 9.4312 0.79455 19.406 3.3591 15.717 0.64996-3.6889-2.7092-9.2453-4.4801-26.154-10.448-16.743-5.9093-32.918-7.74-45.22-8.0009zm165.09 12.126c-26.388-0.2445-50.494 11-51.949 11.524-7.6356 3.229-9.0183 3.9155-15.089 6.7601a3.9343 3.9343 0 0 1 0.74623-0.19925h27.027a3.9343 3.9343 0 0 1 2.7903 1.1643c23.56-12.592 48.591-18.393 76.408-5.749l0.74627 0.47272 0.74627 0.41384 0.74842 0.35691c0.50409-0.30467 1.0082-0.60862 1.5122-0.91259-10.288-6.7666-11.79-8.1027-25.303-11.553-6.0821-1.5527-12.294-2.2218-18.383-2.2782zm-68.715 19.068c-1.5463 0.72167-1.5393 0.72774-3.9283 1.8317-3.5447 1.8262-15.681 8.2798-30.886 13.312 5.8604 6.3956 9.4733 14.554 10.583 23.896 7.5149-5.4072 15.073-11.138 22.718-16.753v-19.335a3.9343 3.9343 0 0 1 1.5122-2.9522zm-98.093 28.747v33.162h18.249c7.6741 0 12.94-1.7887 16.19-4.5322 3.2501-2.7436 4.8956-6.5351 4.8956-12.047 0-5.6066-1.6483-9.3846-4.889-12.104-3.2407-2.7197-8.51-4.4776-16.197-4.4776z" style="paint-order:markers stroke fill"/></g><g stroke-linecap="square" stroke-width="6.9515"><path d="m886.68 220.4h25.359v-68.736l34.201 56.391h12.179l34.368-57.558 0.1671 69.904h25.359l-0.3338-116.79h-22.189l-43.043 72.574-43.711-72.574h-22.356z" style="paint-order:markers stroke fill"/><path d="m777.22 220.4h85.587v-22.022h-58.559v-94.763h-27.027z" style="paint-order:markers stroke fill"/><path d="m684.28 101.61c-36.871 0-63.898 25.693-63.898 60.395 0 34.702 27.028 60.395 63.898 60.395 36.704 0 63.898-25.526 63.898-60.395s-27.195-60.395-63.898-60.395zm0 23.025c20.854 0 36.538 15.181 36.538 37.37 0 22.189-15.684 37.372-36.538 37.372-20.855 0-36.536-15.183-36.536-37.372 0-22.189 15.682-37.37 36.536-37.37z" style="paint-order:markers stroke fill"/><path d="m564.31 220.4h27.027v-116.79h-27.027v46.047h-53.054v-46.047h-27.027v116.79h27.027v-47.882h53.054z" style="paint-order:markers stroke fill"/></g><path d="m352.91 103.61v116.78h27.027v-32.531h24.859l22.524 32.531h29.03l-26.027-37.536c15.182-6.5066 23.858-19.353 23.858-36.871 0-26.193-18.852-42.377-51.385-42.377zm27.027 22.022h22.022c16.517 0 24.859 7.5084 24.859 20.355 0 12.68-8.3418 20.353-24.859 20.353h-22.022z" style="paint-order:markers stroke fill"/><g stroke-linecap="square" stroke-width="6.9515"><path d="m253.13 103.61-52.055 116.78h27.695l10.345-25.025h54.221l10.345 25.025h28.362l-52.221-116.78zm13.179 26.695 18.519 44.544h-37.204z" style="paint-order:markers stroke fill"/><path d="m141.51 222.4c27.528 0 42.043-14.181 42.043-43.044v-75.744h-67.902v21.689h41.042v55.556c0 12.846-5.6724 19.353-16.517 19.353-8.3418 0-15.349-4.3377-21.689-12.846l-15.015 18.018c8.5086 11.011 22.356 17.017 38.039 17.017z" style="paint-order:markers stroke fill"/><path d="m7.1889 220.4h27.027v-42.543h54.055v-21.689h-54.055v-30.865h61.229v-21.689h-88.256z" style="paint-order:markers stroke fill"/></g></g></svg>
